<svg data-v-423bf9ae="" xmlns="http://www.w3.org/2000/svg" viewBox="0 0 365.0370820389558 165" class="iconAbove"><!----><!----><!----><g data-v-423bf9ae="" id="d0b51414-643a-40ec-91a1-2d99bebc5505" fill="white" transform="matrix(3.7037039653427666,0,0,3.7037039653427666,-1.2963003319166262,106.21805330730761)"><path d="M5.01-0.28C2.45-0.28 0.35 2.95 0.35 6.52C0.35 8.68 1.32 10.61 3.51 10.61C4.69 10.61 5.92 10.22 6.92 9.23C7.01 9.13 7.04 9.02 7.04 8.92C7.04 8.78 6.96 8.65 6.80 8.58C5.88 9.10 5.04 9.31 4.30 9.31C2.88 9.31 2.32 7.94 2.32 6.29C2.32 3.36 3.60 0.67 4.82 0.67C5.91 0.67 5.84 2.02 5.00 2.37C5.15 2.76 5.57 2.93 5.82 2.93C6.51 2.93 6.96 2.24 6.96 1.50C6.96 0.64 6.37-0.28 5.01-0.28ZM10.18 3.37C8.23 3.37 6.65 5.81 6.65 8.26C6.65 9.16 6.94 10.61 8.40 10.61C9.20 10.61 9.94 10.02 10.53 9.20C10.51 10.30 11.17 10.61 11.83 10.61C12.59 10.61 13.59 9.97 14.25 9.23C14.34 9.13 14.38 9.02 14.38 8.92C14.38 8.78 14.29 8.65 14.14 8.58C13.79 8.93 13.19 9.28 12.67 9.28C12.31 9.28 12.08 9.03 12.25 8.25L13.23 3.61C13.06 3.50 12.82 3.43 12.57 3.43C12.22 3.43 11.86 3.56 11.62 3.84C11.27 3.53 10.81 3.37 10.18 3.37ZM10.56 8.29C10.18 8.81 9.59 9.17 9.14 9.17C8.71 9.17 8.39 8.86 8.39 8.16C8.39 6.64 8.99 4.42 10.68 4.42C10.89 4.42 11.10 4.45 11.34 4.54ZM14.34 4.87C14.46 4.76 14.55 4.70 14.62 4.70C14.74 4.70 14.81 4.83 14.76 5.05L13.61 10.43C13.78 10.54 14.01 10.61 14.27 10.61C14.77 10.61 15.30 10.37 15.44 9.73L16.30 5.74C16.60 5.36 17.16 5.01 17.54 5.01C17.85 5.01 18.05 5.25 17.92 5.84L17.33 8.62C16.98 10.26 17.72 10.61 18.42 10.61C19.36 10.61 20.30 9.97 20.96 9.23C21.04 9.13 21.08 9.02 21.08 8.92C21.08 8.78 21 8.65 20.85 8.58C20.50 8.93 19.89 9.28 19.38 9.28C19.10 9.28 18.91 9.11 19.00 8.71L19.68 5.49C20.01 4.02 19.47 3.43 18.73 3.43C17.92 3.43 17.02 3.99 16.44 4.83L16.58 4.20C16.70 3.67 16.41 3.43 15.90 3.43C15.32 3.43 14.81 3.72 14.34 4.10C14.06 4.33 14.15 4.76 14.34 4.87ZM27.99 0.48L28.06 0.48L25.80 10.43C25.96 10.54 26.22 10.61 26.54 10.61C27.06 10.61 27.61 10.37 27.75 9.72L29.65 0.77L29.78 0.77C30.10 0.77 30.27 0.49 30.27 0.22C30.27 0.08 30.21-0.06 30.07-0.14C29.47 0.20 28.28-0.42 27.12-0.42C25.47-0.42 24.79 0.59 24.79 1.47C24.79 2.17 25.21 2.80 25.93 2.80C26.12 2.80 26.32 2.76 26.53 2.66C26.36 2.46 26.25 2.16 26.25 1.85C26.25 1.19 26.71 0.48 27.99 0.48ZM38.42-0.28C36.71-0.28 35.46 0.88 35.46 2.45C35.46 5.03 38.26 5.33 38.26 7.59C38.26 8.62 37.72 9.53 36.57 9.53C35.60 9.53 35.10 8.79 35.10 8.05C35.10 7.25 35.78 6.64 36.71 6.94C36.78 6.78 36.81 6.64 36.81 6.50C36.81 5.96 36.34 5.63 35.88 5.63C34.43 5.63 33.66 6.76 33.66 7.95C33.66 9.25 34.57 10.61 36.51 10.61C38.61 10.61 40.21 9.34 40.21 7.17C40.21 4.76 37.28 4.20 37.28 2.20C37.28 1.30 37.73 0.50 38.60 0.50C39.19 0.50 39.45 0.94 39.45 1.40C39.45 1.86 39.19 2.37 38.74 2.51C38.89 2.90 39.33 3.07 39.55 3.07C40.26 3.07 40.68 2.42 40.68 1.69C40.68 0.77 40.01-0.28 38.42-0.28ZM45.43 10.61C46.37 10.61 47.31 9.97 47.96 9.23C48.05 9.13 48.09 9.02 48.09 8.92C48.09 8.78 48.01 8.65 47.85 8.58C47.50 8.93 46.90 9.28 46.38 9.28C46.10 9.28 45.92 9.11 46.00 8.71L46.69 5.49C47.04 3.84 46.07 3.43 45.37 3.43C44.66 3.43 44.04 3.95 43.51 4.70L44.24 1.27C44.35 0.74 44.07 0.50 43.57 0.50C42.81 0.50 41.80 1.18 41.80 1.50C41.80 1.61 41.82 1.75 42.01 1.93C42.24 1.67 42.50 1.75 42.42 2.13L40.64 10.47C40.81 10.58 40.98 10.61 41.23 10.61C41.73 10.61 42.27 10.37 42.41 9.73L43.29 5.75C43.67 5.31 44.09 5.01 44.59 5.01C45.05 5.01 45.02 5.39 44.93 5.84L44.34 8.62C43.99 10.26 44.73 10.61 45.43 10.61ZM51.27 3.37C49.15 3.37 47.68 6.02 47.68 8.13C47.68 9.45 48.30 10.61 49.74 10.61C51.94 10.61 53.44 7.97 53.44 5.88C53.44 4.51 52.79 3.37 51.27 3.37ZM51.58 4.44C52.15 4.44 52.39 5.01 52.39 5.77C52.39 7.24 51.49 9.39 50.39 9.39C49.90 9.39 49.48 8.92 49.48 7.69C49.48 6.31 50.30 4.44 51.58 4.44ZM52.60 15.60C52.77 15.71 53.00 15.78 53.26 15.78C53.76 15.78 54.25 15.54 54.39 14.90L55.36 10.25C55.64 10.49 55.99 10.61 56.32 10.61C58.72 10.61 60.24 7.84 60.24 5.74C60.24 4.47 59.70 3.43 58.46 3.43C57.76 3.43 57.11 3.86 56.56 4.54L56.63 4.20C56.76 3.67 56.46 3.43 55.96 3.43C55.37 3.43 54.87 3.72 54.39 4.10C54.11 4.33 54.21 4.76 54.39 4.87C54.52 4.76 54.60 4.70 54.67 4.70C54.80 4.70 54.87 4.83 54.81 5.05ZM57.69 4.83C58.17 4.83 58.52 5.26 58.52 6.24C58.52 7.63 57.67 9.53 56.24 9.53C56.01 9.53 55.79 9.52 55.54 9.38L56.31 5.73C56.77 5.15 57.27 4.83 57.69 4.83ZM66.26 2.86C66.26 1.27 67.42 0.56 68.42 0.56C68.47 0.56 68.54 0.57 68.61 0.59L66.39 10.43C66.54 10.54 66.81 10.61 67.13 10.61C67.65 10.61 68.19 10.37 68.33 9.72L70.14 1.20C70.74 1.47 71.36 1.72 71.82 1.72C72.83 1.72 73.50 0.87 73.19-0.39C71.58 0.32 70.24-0.28 68.68-0.28C67.35-0.28 64.81 0.21 64.81 2.51C64.81 3.18 65.23 3.81 65.95 3.81C66.14 3.81 66.33 3.77 66.54 3.67C66.35 3.44 66.26 3.09 66.26 2.86ZM75.12 10.61C76.06 10.61 77 9.97 77.66 9.23C77.74 9.13 77.78 9.02 77.78 8.92C77.78 8.78 77.70 8.65 77.55 8.58C77.20 8.93 76.59 9.28 76.08 9.28C75.80 9.28 75.61 9.11 75.70 8.71L76.38 5.49C76.73 3.84 75.77 3.43 75.07 3.43C74.35 3.43 73.74 3.95 73.21 4.70L73.93 1.27C74.05 0.74 73.77 0.50 73.26 0.50C72.51 0.50 71.50 1.18 71.50 1.50C71.50 1.61 71.51 1.75 71.71 1.93C71.93 1.67 72.20 1.75 72.11 2.13L70.34 10.47C70.50 10.58 70.67 10.61 70.92 10.61C71.43 10.61 71.96 10.37 72.10 9.73L72.98 5.75C73.36 5.31 73.78 5.01 74.28 5.01C74.75 5.01 74.72 5.39 74.62 5.84L74.03 8.62C73.68 10.26 74.42 10.61 75.12 10.61ZM82.50 4.72C82.50 4.09 82.18 3.37 80.91 3.37C78.60 3.37 77.39 6.29 77.39 8.11C77.39 9.83 78.46 10.61 79.77 10.61C81.13 10.61 82.75 9.77 83.72 8.36C83.87 8.11 83.73 7.81 83.37 7.88C82.77 8.68 81.48 9.39 80.47 9.39C79.83 9.39 79.31 9.11 79.17 8.36C81.87 6.86 82.50 5.91 82.50 4.72ZM81.00 4.47C81.24 4.47 81.41 4.69 81.41 5.01C81.41 5.92 80.49 6.90 79.13 7.76C79.17 6.78 79.62 4.47 81.00 4.47ZM85.79 4.20C85.90 3.67 85.62 3.43 85.12 3.43C84.53 3.43 84.03 3.72 83.55 4.10C83.27 4.33 83.37 4.76 83.55 4.87C83.68 4.76 83.76 4.70 83.83 4.70C83.96 4.70 84.01 4.83 83.97 5.05L82.82 10.43C82.99 10.54 83.23 10.61 83.48 10.61C83.99 10.61 84.52 10.37 84.66 9.73L84.83 8.88C85.54 5.64 86.20 5.01 86.66 5.01C86.95 5.01 87.09 5.17 87.09 5.36C87.09 5.53 87.04 5.71 86.94 5.80C87.07 5.84 87.22 5.85 87.35 5.85C88.07 5.85 88.47 5.17 88.47 4.54C88.47 3.96 88.12 3.43 87.44 3.43C86.80 3.43 86.20 3.82 85.64 4.96ZM93.13 4.72C93.13 4.09 92.81 3.37 91.53 3.37C89.22 3.37 88.02 6.29 88.02 8.11C88.02 9.83 89.08 10.61 90.40 10.61C91.76 10.61 93.38 9.77 94.35 8.36C94.50 8.11 94.36 7.81 94.00 7.88C93.39 8.68 92.11 9.39 91.10 9.39C90.45 9.39 89.94 9.11 89.80 8.36C92.50 6.86 93.13 5.91 93.13 4.72ZM91.63 4.47C91.87 4.47 92.04 4.69 92.04 5.01C92.04 5.92 91.11 6.90 89.75 7.76C89.80 6.78 90.24 4.47 91.63 4.47ZM95.56 2.74C95.31 2.55 95.27 2.24 95.27 2.06C95.27 1.48 95.63 0.92 96.33 0.92C96.73 0.92 97.09 1.23 97.09 1.92C97.09 3.04 96.60 3.70 96.07 4.40C95.44 5.25 94.77 6.13 94.77 7.95C95.51 8.20 95.98 7.90 95.98 7.43C95.98 6.13 96.73 5.36 97.44 4.62C98.20 3.85 98.91 3.11 98.91 1.83C98.91 0.42 97.73-0.28 96.56-0.28C95.13-0.28 94.05 0.70 94.05 1.90C94.05 2.59 94.29 3.05 94.88 3.05C95.17 3.05 95.41 2.93 95.56 2.74ZM94.32 9.67C94.28 10.22 94.70 10.65 95.24 10.65C95.79 10.65 96.24 10.22 96.28 9.67C96.31 9.13 95.89 8.69 95.34 8.69C94.79 8.69 94.35 9.13 94.32 9.67Z"></path></g><!----><g data-v-423bf9ae="" id="08e128fe-6110-4cee-816b-4b116b24e1d1" transform="matrix(1.009193844265408,0,0,1.009193844265408,132.539997806121,-3.8734152928930925)" stroke="none" fill="white"><path fill-rule="evenodd" clip-rule="evenodd" d="M28.771 17.173c5.02 1.652 10.008 3.406 15.067 4.925 5.057 1.516 10.115 3.476 15.299 4.009 6.457.665 12.558-4.046 14.61-10.262 1.062-3.222 2.696-2.23 4.53-1.064 7.34 4.669 11.965 11.562 14.427 19.615 1.563 5.117 1.782 10.681 2.272 16.075.271 2.974-1.71 4.844-4.278 6.18-14.588 7.593-27.94 4.734-41.068-4.049-7.153-4.785-14.787-9.067-22.696-12.418-4.031-1.708-9.145-1.073-13.771-1.102-5.128-.03-6.927-1.898-4.908-6.463 4.152-9.393 8.605-14.57 20.516-15.446z"></path><path fill-rule="evenodd" clip-rule="evenodd" d="M5.006 54.279c-.057-7.91.199-7.67 5.821-8.992 11.541-2.715 20.914 1.757 29.956 7.999 6.697 4.621 13.166 9.583 21.258 11.819 8.952 2.476 17.654 2.253 26.341-1.026 1.229-.463 2.712-.253 4.077-.354-.207 1.363-.17 2.824-.66 4.075-5.368 13.711-21.246 16.426-34.401 10.659-3.896-1.708-7.819-3.488-11.901-4.616-8.061-2.228-15.919 1.389-19.252 8.956-1.49 3.38-2.824 3.047-5.266 1.246C10.23 76.111 6.221 64.851 5.006 54.279z"></path><path fill-rule="evenodd" clip-rule="evenodd" d="M72.867 89.96c-5.53 1.722-10.052 3.428-14.719 4.514-7.909 1.84-15.677.96-23.056-2.482-4.632-2.162-5.158-7.041-1.304-10.342 3.779-3.238 8.233-3.479 12.464-1.9 7.835 2.926 15.173 7.26 23.797 7.833.587.038 1.121.91 2.818 2.377zM28.966 9.381c4.194-1.357 8.302-3.201 12.601-3.964 7.153-1.27 14.361-1.303 21.349 1.462 3.164 1.251 5.53 3.192 5.36 6.673-.173 3.499-2.896 5.705-6.016 6.109-3.469.449-7.273.376-10.602-.593-7.012-2.042-13.809-4.815-20.69-7.3-.586-.213-1.14-.517-1.71-.778-.096-.537-.195-1.073-.292-1.609z"></path></g><!----></svg>